#!OML:ASF F:\VICON\USERDATA\INSTALL\rory3\rory3.ASF
:FULLY-SPECIFIED
:DEGREES
64
root 0.650066509193864 18.168498419012906 29.765363134203817 1.8142359247032158 5.485594245117694 -1.015026490994559
lfemur -19.399846719797093 0.1103717241941701 -21.711576001109027
ltibia 27.654404132848626
lfoot 2.180830423701784 -12.358648400892749
ltoes -4.754657394886957
rfemur -8.257503232311201 5.130379302217754 30.08637747505002
rtibia 67.46382669202981
rfoot 9.853682403458082 -7.0105615657566
rtoes -2.6945775329456705
lowerback 12.456336325537409 0.5182501820035061 2.594324820875244
upperback -1.3831652208315728 2.643289250415248 0.9114018396677688
thorax -8.782490179040634 1.026553528547499 -1.1997289196907241
lowerneck -19.6712403234803 -5.6891126986426315 -1.9936762123422196
upperneck 15.043436616555445 -7.613390231104448 3.299034673563104
head 8.14830041703262 -3.3361322386818433 0.5295132177712775
lclavicle -1.9521778548038573e-15 1.1013510665873355e-15
lhumerus -58.429863050561686 -5.659667998686435 97.24676908165702
lradius 109.49260537539217
lwrist 46.03381865087052
lhand -17.794838227292853 6.364877607701937
lfingers 7.125020000000001
lthumb 8.141752973935587 36.255672299429214
rclavicle -1.9521588892316494e-15 1.1013659669828002e-15
rhumerus -42.503754446649765 20.418213474621787 -102.04516683065269
rradius 107.45568859162098
rwrist -15.282272627253926
rhand -24.701302664420016 -152.99367131392205
rfingers 7.125020000000001
rthumb 2.5863764930638893 13.058278236007029
65
root 0.621897914438694 17.986091763461932 28.939833915966947 1.246166063658221 5.650383218820541 -0.717642916691906
lfemur -20.87587628125944 -0.5798243671889447 -23.398465099018015
ltibia 31.207038011963988
lfoot 2.2615602998188304 -12.216739711439862
ltoes -4.671777327453871
rfemur -10.410904650373219 4.5301307933189126 29.274586977651616
rtibia 71.87371529093538
rfoot 9.527931459792057 -7.798502665189721
rtoes -2.632922354116083
lowerback 12.762713091905475 0.4794743878445541 2.304109123218043
upperback -1.2415743566637985 2.5796852631646288 0.8780898755000056
thorax -8.88091377850904 0.9704571686995411 -1.0241603680116007
lowerneck -19.79204680276421 -5.67810952384419 -2.0059416000892023
upperneck 15.04789596980731 -7.534665284006056 3.3082489137209565
head 8.139983459887214 -3.322137978771001 0.5403037649254906
lclavicle -1.9521778548038573e-15 1.1013510665873355e-15
lhumerus -56.40753625167106 -5.802359722040589 97.51348914171972
lradius 109.44618588285512
lwrist 46.0409196442532
lhand -17.779544413623054 6.290820264960406
lfingers 7.125020000000001
lthumb 8.087048427982687 36.045609519182435
rclavicle -1.9521588892316494e-15 1.1013659669828002e-15
rhumerus -43.2014385278516 19.965100093215554 -102.52841072756252
rradius 107.42308536113629
rwrist -15.634855726577749
rhand -24.512486656392493 -148.5999676641302
rfingers 7.125020000000001
rthumb 2.9337185270523385 13.511682189747292
66
root 0.5954369106086956 17.78505412531499 28.641344327274897 0.8007253896863054 5.74458410658756 -0.36482441935324317
lfemur -16.89991086054659 -0.33931447306350954 -23.198171701465764
ltibia 35.55317635624134
lfoot 2.0280372487737983 -12.063660768971967
ltoes -4.841410234666999
rfemur -12.031120142902932 4.177277327229147 28.704441474744574
rtibia 75.66182964556968
rfoot 9.179979774549981 -8.251294482147234
rtoes -2.3651918606185545
lowerback 13.113513284918362 0.41080680579773154 1.9190887580479674
upperback -1.0960320056488613 2.3987957060537237 0.8106012233893464
thorax -8.886101254921343 0.8953169858405783 -0.8090505352546142
lowerneck -19.86324632346238 -5.581216305749026 -1.9894014550653345
upperneck 15.096253026186675 -7.374255064797667 3.318622627526221
head 8.146463415870487 -3.267349027795544 0.5659202012261302
lclavicle -1.9521778548038573e-15 1.1013510665873355e-15
lhumerus -54.812639514910416 -6.378899742215901 97.58186570164858
lradius 109.23625614116287
lwrist 46.19240727203471
lhand -17.737919744266822 6.210123223429543
lfingers 7.125020000000001
lthumb 8.057306027825907 35.8813993220258
rclavicle -1.9521588892316494e-15 1.1013659669828002e-15
rhumerus -44.04143156616544 19.29162647823357 -102.95224777084798
rradius 107.60981679671993
rwrist -16.095627220698432
rhand -24.543433112149323 -147.50246541388486
rfingers 7.125020000000001
rthumb 2.5885410046218955 12.868958322151968
67
root 0.5774296760586572 17.61346920981896 29.47886076462437 0.6576306114567245 5.856941474178345 0.1278695392514313
lfemur -16.848556040212973 -0.35839719960326927 -23.860849789110436
ltibia 39.56359410714039
lfoot 2.238627553189616 -11.718199839334176
ltoes -5.381353766274435
rfemur -14.138696604514344 3.722869691621031 27.801193994106107
rtibia 78.59508310677151
rfoot 9.00505478731171 -8.227906520438504
rtoes -1.9639083999037719
lowerback 13.480228714475597 0.3147690908972933 1.432758669313571
upperback -0.9570363882888053 2.12214227765816 0.694250308265111
thorax -8.951421631756697 0.8155429951666393 -0.5913508972947099
lowerneck -20.02706238341772 -5.549369048905943 -1.9959721881841435
upperneck 15.161442890548486 -7.231751271410381 3.3061607944795166
head 8.140808804871801 -3.256460706963657 0.5692242628207479
lclavicle -1.9521778548038573e-15 1.1013510665873355e-15
lhumerus -52.95631751304065 -6.91626352428858 97.58099381591651
lradius 109.28848085114043
lwrist 46.513736607956204
lhand -17.70049034041894 6.247498065222867
lfingers 7.125020000000001
lthumb 7.977208633178648 35.767254825915494
rclavicle -1.9521588892316494e-15 1.1013659669828002e-15
rhumerus -44.9932645841725 18.47091681525981 -103.36388047169896
rradius 107.91322838148479
rwrist -16.239093796961875
rhand -24.086359241484494 -135.9935425546879
rfingers 7.125020000000001
rthumb 2.679002302806467 12.67925502643523
68
root 0.5618316223494925 17.4587094086552 30.057731275728166 0.6544622803925377 5.770323050437392 0.6280457635547274
lfemur -16.34148499181829 -0.49237601392962443 -24.66919708864856
ltibia 42.077008186840246
lfoot 3.0821419787186732 -11.439206458819337
ltoes -6.106944984005073
rfemur -17.060918413543114 2.997301380008344 26.88905521607382
rtibia 80.43377119915385
rfoot 9.438361888762136 -7.552105308554836
rtoes -2.4273017217644837
lowerback 13.771276375007792 0.17328420587834215 0.8104723916141361
upperback -0.8064082619340275 1.7878327147409798 0.568552385818516
thorax -9.030503150882629 0.733590340607709 -0.3355878583626685
lowerneck -20.10203228433354 -5.415497780107951 -1.9650431527087235
upperneck 15.259333682069498 -7.058384482796036 3.282078842380937
head 8.144646671818204 -3.2594770052400373 0.5647408065609708
lclavicle -1.9521778548038573e-15 1.1013510665873355e-15
lhumerus -50.6364860142349 -7.272705094253217 97.68331852097636
lradius 109.17408262329982
lwrist 46.68337588522418
lhand -17.68087850861519 6.281629805379713
lfingers 7.125020000000001
lthumb 7.9576578504296 35.80907002079914
rclavicle -1.9521588892316494e-15 1.1013659669828002e-15
rhumerus -45.942735846062234 17.62364917065456 -103.69634975100703
rradius 108.17205118802187
rwrist -15.829265027935458
rhand -24.422085701355062 -138.57411928852207
rfingers 7.125020000000001
rthumb 2.639782821457568 12.58757335940519
69
root 0.5592030573088951 17.361823551249866 31.419686390236475 0.9161671162506773 5.728698493496168 1.16194125299895
lfemur -15.109493322209863 -0.8009078897122315 -25.603202425965815
ltibia 43.10110384172708
lfoot 2.530823285509646 -12.169043666351055
ltoes -6.9055976243236
rfemur -18.67244623236252 2.7625170434037662 26.261956128036847
rtibia 80.96280498019506
rfoot 9.048883388550415 -6.9030617819246824
rtoes -2.776068748097203
lowerback 13.999280643935096 0.012023806544810445 0.16862489067768505
upperback -0.6837364591486434 1.476668856481969 0.43004660008692663
thorax -9.134717247476805 0.6538508578484407 -0.0734058441513249
lowerneck -20.255140981720075 -5.319637264303674 -1.9588631077557614
upperneck 15.378724933614297 -6.871358745138036 3.248825353298864
head 8.158906336030649 -3.243993451988498 0.5667741129248692
lclavicle -1.9521778548038573e-15 1.1013510665873355e-15
lhumerus -48.227439848425334 -7.57028407512875 97.67322849877546
lradius 109.47850444165172
lwrist 46.764095545532626
lhand -17.73117022962355 6.320438541194262
lfingers 7.125020000000001
lthumb 7.9862169179939055 35.91411529951679
rclavicle -1.9521588892316494e-15 1.1013659669828002e-15
rhumerus -47.038052095499076 16.739841286903754 -104.00413260854033
rradius 108.37586945092383
rwrist -15.322426622052486
rhand -24.16985407038375 -132.05566395413626
rfingers 7.125020000000001
rthumb 2.810852386126892 12.869902848831838
70
root 0.5605736739964516 17.295034863910235 31.702275822333135 1.1905454596138516 5.528796839399946 1.4712974144844835
lfemur -12.849720485925253 -0.6863450017140416 -25.49964083758391
ltibia 43.01244336716079
lfoot 2.8263449471545288 -12.713310661566979
ltoes -8.008573210565112
rfemur -21.28140501376671 2.43803274687033 25.32657840699277
rtibia 80.36334643126054
rfoot 8.820052309474159 -6.236417648378641
rtoes -3.7825113656645044
lowerback 14.10830023751526 -0.1828330805591611 -0.44929793693683395
upperback -0.5987853131808853 1.201931617587867 0.2790356787244589
thorax -9.165640035455478 0.6121532956559603 0.32908278808561797
lowerneck -20.346263598305775 -5.15425134661613 -1.9349264363630208
upperneck 15.441147845983656 -6.728626209537049 3.168493407364457
head 8.185506548910752 -3.1887728630629963 0.5718068390040182
lclavicle -1.9521778548038573e-15 1.1013510665873355e-15
lhumerus -47.08798016300913 -8.16058497883746 97.3952092363324
lradius 110.19090935654197
lwrist 46.55048975826461
lhand -17.612078106471717 6.424813312281608
lfingers 7.125020000000001
lthumb 7.970779286245537 36.01590545149309
rclavicle -1.9521588892316494e-15 1.1013659669828002e-15
rhumerus -48.31760998758176 15.810054801264158 -104.27236305415305
rradius 108.5668899531867
rwrist -15.202968913071263
rhand -24.352086444235002 -130.31009268616566
rfingers 7.125020000000001
rthumb 2.7066125994918475 12.819989193372013
